<?xml version="1.0" encoding="UTF-8"?>
<!DOCTYPE svg PUBLIC "-//W3C//DTD SVG 1.1//EN" "http://www.w3.org/Graphics/SVG/1.1/DTD/svg11.dtd">
<svg xmlns="http://www.w3.org/2000/svg" version="1.1" width="256px" height="256px" style="shape-rendering:geometricPrecision; text-rendering:geometricPrecision; image-rendering:optimizeQuality; fill-rule:evenodd; clip-rule:evenodd" xmlns:xlink="http://www.w3.org/1999/xlink">
<g><path style="opacity:0.939" fill="#020201" d="M 122.5,13.5 C 131.327,12.5775 138.827,15.2442 145,21.5C 153.574,37.3145 161.574,53.3145 169,69.5C 170.046,71.0905 171.213,72.5905 172.5,74C 191.651,76.1475 210.651,79.1475 229.5,83C 243.952,91.4013 247.119,102.901 239,117.5C 225.694,130.806 212.36,144.14 199,157.5C 201.628,173.425 204.295,189.425 207,205.5C 210.06,220.89 204.227,231.056 189.5,236C 184.291,236.866 179.291,236.199 174.5,234C 159.112,225.306 143.445,217.139 127.5,209.5C 109.766,218.367 92.0993,227.2 74.5,236C 57.6315,236.796 48.6315,228.796 47.5,212C 49.9651,193.713 52.7984,175.547 56,157.5C 43.611,144.776 30.9444,132.443 18,120.5C 8.41904,107.554 9.5857,95.7205 21.5,85C 25.0901,83.4698 28.7568,82.1365 32.5,81C 49.1818,78.7392 65.8485,76.4059 82.5,74C 91.3981,57.7037 99.8981,41.2037 108,24.5C 111.562,18.9885 116.396,15.3218 122.5,13.5 Z M 127.5,49.5 C 128.376,49.3691 129.043,49.7025 129.5,50.5C 137.372,66.4111 145.372,82.2445 153.5,98C 171.749,101.406 190.083,104.239 208.5,106.5C 208.762,107.978 208.429,109.311 207.5,110.5C 194.794,122.707 182.294,135.04 170,147.5C 172.61,166.495 175.443,185.495 178.5,204.5C 161.252,196.691 144.419,188.025 128,178.5C 127.5,135.501 127.333,92.5013 127.5,49.5 Z"/></g>
<g><path style="opacity:1" fill="#f5cc6e" d="M 31.5,95.5 C 35.3597,95.1916 39.0264,94.5249 42.5,93.5C 59.1318,90.8453 75.7984,88.1786 92.5,85.5C 101.862,65.9397 111.862,46.773 122.5,28C 127.152,26.8069 131.319,27.6403 135,30.5C 144.326,48.9849 153.493,67.4849 162.5,86C 182.7,89.7339 203.033,92.7339 223.5,95C 229.612,98.2465 231.112,103.08 228,109.5C 213.971,123.863 199.638,137.863 185,151.5C 187.562,172.043 190.729,192.543 194.5,213C 193.429,220.741 189.095,223.741 181.5,222C 163.507,212.42 145.341,203.254 127,194.5C 109.815,203.177 92.6479,212.01 75.5,221C 66.5772,224.376 61.5772,221.376 60.5,212C 64.2323,191.869 67.399,171.702 70,151.5C 55.3888,137.89 41.0555,123.89 27,109.5C 25.5167,106.298 25.1834,102.964 26,99.5C 27.1474,97.1811 28.9807,95.8477 31.5,95.5 Z M 127.5,49.5 C 127.333,92.5013 127.5,135.501 128,178.5C 144.419,188.025 161.252,196.691 178.5,204.5C 175.443,185.495 172.61,166.495 170,147.5C 182.294,135.04 194.794,122.707 207.5,110.5C 208.429,109.311 208.762,107.978 208.5,106.5C 190.083,104.239 171.749,101.406 153.5,98C 145.372,82.2445 137.372,66.4111 129.5,50.5C 129.043,49.7025 128.376,49.3691 127.5,49.5 Z"/></g>
<g><path style="opacity:1" fill="#9c8246" d="M 42.5,93.5 C 39.0264,94.5249 35.3597,95.1916 31.5,95.5C 34.8448,93.783 38.5115,93.1164 42.5,93.5 Z"/></g>
</svg>
